<svg width="72" height="64" viewBox="0 0 72 64" fill="none" xmlns="http://www.w3.org/2000/svg">
<path d="M63.68 4.04C62.88 1.68 60.64 0 58 0H14C11.36 0 9.16 1.68 8.32 4.04L0 28V60C0 62.2 1.8 64 4 64H8C10.2 64 12 62.2 12 60V56H60V60C60 62.2 61.8 64 64 64H68C70.2 64 72 62.2 72 60V28L63.68 4.04ZM18 44C14.68 44 12 41.32 12 38C12 34.68 14.68 32 18 32C21.32 32 24 34.68 24 38C24 41.32 21.32 44 18 44ZM54 44C50.68 44 48 41.32 48 38C48 34.68 50.68 32 54 32C57.32 32 60 34.68 60 38C60 41.32 57.32 44 54 44ZM11.24 20L15.4 8H56.56L60.72 20H11.24Z" fill="white"/>
</svg>
