<svg width="100" height="100" viewBox="0 0 100 100" fill="none" xmlns="http://www.w3.org/2000/svg">
<g clip-path="url(#clip0_162_11705)">
<g clip-path="url(#clip1_162_11705)">
<rect width="100" height="100" transform="translate(0 4.1665)" fill="#FFF4EA"/>
<path d="M24.042 33.9583L30.0003 24.0833L34.292 16.9583C35.917 14.25 39.8337 14.25 41.4587 16.9583L47.6253 27.2083L42.5003 35.7917L38.3337 42.5417L24.042 33.9583ZM90.5003 58.2083L83.8337 47.125L69.417 55.4583L78.6253 70.8333H83.3337C86.5003 70.8333 89.3753 69.0417 90.792 66.2083C91.3753 65.0417 91.667 63.7917 91.667 62.5C91.667 61 91.2503 59.5417 90.5003 58.2083ZM66.667 91.6667H72.917C76.0837 91.6667 78.9587 89.875 80.3753 87.0417L86.417 75H66.667V66.6667L50.0003 83.3333L66.667 100V91.6667ZM41.667 75H23.7503L20.2503 80.875C19.0003 82.9583 18.917 85.5417 20.0003 87.75C21.167 90.125 23.6253 91.6667 26.3337 91.6667H41.667V75ZM25.5003 63.9583L32.7087 68.2917L27.0003 45.4167L4.16699 51.125L11.2503 55.375L9.54199 58.25C8.08366 60.7083 7.95866 63.7083 9.25033 66.25L16.042 79.8333L25.5003 63.9583ZM70.917 25.5833L65.5003 16.5417C63.9587 14.0417 61.2503 12.5 58.3337 12.5H43.6253L56.6253 34.1667L49.4587 38.4583L72.3337 44.1667L78.042 21.2917L70.917 25.5833Z" fill="#289344"/>
</g>
<path d="M64.3989 41.748C63.9828 40.5144 62.8175 39.6362 61.4442 39.6362H38.5553C37.182 39.6362 36.0375 40.5144 35.6005 41.748L31.2725 54.2726V70.9999C31.2725 72.1499 32.2088 73.0908 33.3533 73.0908H35.4341C36.5785 73.0908 37.5149 72.1499 37.5149 70.9999V68.909H62.4846V70.9999C62.4846 72.1499 63.4209 73.0908 64.5654 73.0908H66.6462C67.7906 73.0908 68.727 72.1499 68.727 70.9999V54.2726L64.3989 41.748ZM38.5553 62.6362C36.8282 62.6362 35.4341 61.2353 35.4341 59.4999C35.4341 57.7644 36.8282 56.3635 38.5553 56.3635C40.2824 56.3635 41.6765 57.7644 41.6765 59.4999C41.6765 61.2353 40.2824 62.6362 38.5553 62.6362ZM61.4442 62.6362C59.7171 62.6362 58.323 61.2353 58.323 59.4999C58.323 57.7644 59.7171 56.3635 61.4442 56.3635C63.1712 56.3635 64.5654 57.7644 64.5654 59.4999C64.5654 61.2353 63.1712 62.6362 61.4442 62.6362ZM35.4341 52.1817L38.5553 42.7726H61.4442L64.5654 52.1817H35.4341Z" fill="#FF8E29"/>
</g>
<defs>
<clipPath id="clip0_162_11705">
<rect width="100" height="100" fill="white"/>
</clipPath>
<clipPath id="clip1_162_11705">
<rect width="100" height="100" fill="white" transform="translate(0 4.1665)"/>
</clipPath>
</defs>
</svg>
