<svg xmlns="http://www.w3.org/2000/svg" xmlns:xlink="http://www.w3.org/1999/xlink" width="500" zoomAndPan="magnify" viewBox="0 0 375 374.999991" height="500" preserveAspectRatio="xMidYMid meet" version="1.0"><defs><clipPath id="d0e26ed7f8"><path d="M 118 102 L 157 102 L 157 141 L 118 141 Z M 118 102 " clip-rule="nonzero"/></clipPath><clipPath id="9ac9e4a5ce"><path d="M 185.734375 131.351562 L 152.023438 181.234375 L 98.625 145.148438 L 132.335938 95.265625 Z M 185.734375 131.351562 " clip-rule="nonzero"/></clipPath><clipPath id="9bb515de70"><path d="M 185.734375 131.351562 L 152.023438 181.234375 L 98.625 145.148438 L 132.335938 95.265625 Z M 185.734375 131.351562 " clip-rule="nonzero"/></clipPath><clipPath id="5355954f8f"><path d="M 132 116 L 143 116 L 143 127 L 132 127 Z M 132 116 " clip-rule="nonzero"/></clipPath><clipPath id="1cb5992b3e"><path d="M 185.734375 131.351562 L 152.023438 181.234375 L 98.625 145.148438 L 132.335938 95.265625 Z M 185.734375 131.351562 " clip-rule="nonzero"/></clipPath><clipPath id="62a6b8c6cf"><path d="M 185.734375 131.351562 L 152.023438 181.234375 L 98.625 145.148438 L 132.335938 95.265625 Z M 185.734375 131.351562 " clip-rule="nonzero"/></clipPath><clipPath id="39e1fc1899"><path d="M 153 143 L 162 143 L 162 152 L 153 152 Z M 153 143 " clip-rule="nonzero"/></clipPath><clipPath id="1d97628b88"><path d="M 185.734375 131.351562 L 152.023438 181.234375 L 98.625 145.148438 L 132.335938 95.265625 Z M 185.734375 131.351562 " clip-rule="nonzero"/></clipPath><clipPath id="3c0ab493ef"><path d="M 185.734375 131.351562 L 152.023438 181.234375 L 98.625 145.148438 L 132.335938 95.265625 Z M 185.734375 131.351562 " clip-rule="nonzero"/></clipPath><clipPath id="67dad84dc0"><path d="M 122 144 L 145 144 L 145 167 L 122 167 Z M 122 144 " clip-rule="nonzero"/></clipPath><clipPath id="8bb7537ecf"><path d="M 185.734375 131.351562 L 152.023438 181.234375 L 98.625 145.148438 L 132.335938 95.265625 Z M 185.734375 131.351562 " clip-rule="nonzero"/></clipPath><clipPath id="85a2e9c0c7"><path d="M 185.734375 131.351562 L 152.023438 181.234375 L 98.625 145.148438 L 132.335938 95.265625 Z M 185.734375 131.351562 " clip-rule="nonzero"/></clipPath><clipPath id="72b7ffb55d"><path d="M 142 133 L 172 133 L 172 162 L 142 162 Z M 142 133 " clip-rule="nonzero"/></clipPath><clipPath id="f3a9371afb"><path d="M 185.734375 131.351562 L 152.023438 181.234375 L 98.625 145.148438 L 132.335938 95.265625 Z M 185.734375 131.351562 " clip-rule="nonzero"/></clipPath><clipPath id="ede419eb7b"><path d="M 185.734375 131.351562 L 152.023438 181.234375 L 98.625 145.148438 L 132.335938 95.265625 Z M 185.734375 131.351562 " clip-rule="nonzero"/></clipPath><clipPath id="75dc6eef64"><path d="M 130.476562 100.90625 L 276.332031 100.90625 L 276.332031 279.828125 L 130.476562 279.828125 Z M 130.476562 100.90625 " clip-rule="nonzero"/></clipPath><clipPath id="a9b419740f"><path d="M 86 268 L 116 268 L 116 297 L 86 297 Z M 86 268 " clip-rule="nonzero"/></clipPath><clipPath id="f48f14690f"><path d="M -15.070312 213.929688 L 152.765625 -19.1875 L 402.921875 160.921875 L 235.085938 394.035156 Z M -15.070312 213.929688 " clip-rule="nonzero"/></clipPath><clipPath id="5dd1740579"><path d="M -15.070312 213.929688 L 152.765625 -19.1875 L 402.921875 160.921875 L 235.085938 394.035156 Z M -15.070312 213.929688 " clip-rule="nonzero"/></clipPath><clipPath id="63cfdf1db7"><path d="M -15.070312 213.929688 L 152.765625 -19.1875 L 402.921875 160.921875 L 235.085938 394.035156 Z M -15.070312 213.929688 " clip-rule="nonzero"/></clipPath><clipPath id="19c86a329d"><path d="M 43 191 L 69 191 L 69 223 L 43 223 Z M 43 191 " clip-rule="nonzero"/></clipPath><clipPath id="7b8e25998c"><path d="M -15.070312 213.929688 L 152.765625 -19.1875 L 402.921875 160.921875 L 235.085938 394.035156 Z M -15.070312 213.929688 " clip-rule="nonzero"/></clipPath><clipPath id="a4fd3dc276"><path d="M -15.070312 213.929688 L 152.765625 -19.1875 L 402.921875 160.921875 L 235.085938 394.035156 Z M -15.070312 213.929688 " clip-rule="nonzero"/></clipPath><clipPath id="96f7a73f7f"><path d="M -15.070312 213.929688 L 152.765625 -19.1875 L 402.921875 160.921875 L 235.085938 394.035156 Z M -15.070312 213.929688 " clip-rule="nonzero"/></clipPath><clipPath id="0c92af3a62"><path d="M 58 233 L 86 233 L 86 264 L 58 264 Z M 58 233 " clip-rule="nonzero"/></clipPath><clipPath id="89bf130145"><path d="M -15.070312 213.929688 L 152.765625 -19.1875 L 402.921875 160.921875 L 235.085938 394.035156 Z M -15.070312 213.929688 " clip-rule="nonzero"/></clipPath><clipPath id="a95fa522e5"><path d="M -15.070312 213.929688 L 152.765625 -19.1875 L 402.921875 160.921875 L 235.085938 394.035156 Z M -15.070312 213.929688 " clip-rule="nonzero"/></clipPath><clipPath id="ea47581975"><path d="M -15.070312 213.929688 L 152.765625 -19.1875 L 402.921875 160.921875 L 235.085938 394.035156 Z M -15.070312 213.929688 " clip-rule="nonzero"/></clipPath><clipPath id="2faf4b2278"><path d="M 124 292 L 156 292 L 156 318 L 124 318 Z M 124 292 " clip-rule="nonzero"/></clipPath><clipPath id="6595ae35d8"><path d="M -15.070312 213.929688 L 152.765625 -19.1875 L 402.921875 160.921875 L 235.085938 394.035156 Z M -15.070312 213.929688 " clip-rule="nonzero"/></clipPath><clipPath id="97a6185d44"><path d="M -15.070312 213.929688 L 152.765625 -19.1875 L 402.921875 160.921875 L 235.085938 394.035156 Z M -15.070312 213.929688 " clip-rule="nonzero"/></clipPath><clipPath id="1d1ff75e18"><path d="M -15.070312 213.929688 L 152.765625 -19.1875 L 402.921875 160.921875 L 235.085938 394.035156 Z M -15.070312 213.929688 " clip-rule="nonzero"/></clipPath><clipPath id="c0eab0bdf8"><path d="M 168 301 L 200 301 L 200 325 L 168 325 Z M 168 301 " clip-rule="nonzero"/></clipPath><clipPath id="1a609f87a0"><path d="M -15.070312 213.929688 L 152.765625 -19.1875 L 402.921875 160.921875 L 235.085938 394.035156 Z M -15.070312 213.929688 " clip-rule="nonzero"/></clipPath><clipPath id="43758ca9aa"><path d="M -15.070312 213.929688 L 152.765625 -19.1875 L 402.921875 160.921875 L 235.085938 394.035156 Z M -15.070312 213.929688 " clip-rule="nonzero"/></clipPath><clipPath id="33036f2f05"><path d="M -15.070312 213.929688 L 152.765625 -19.1875 L 402.921875 160.921875 L 235.085938 394.035156 Z M -15.070312 213.929688 " clip-rule="nonzero"/></clipPath><clipPath id="250af0e4ca"><path d="M 44 37 L 329 37 L 329 289 L 44 289 Z M 44 37 " clip-rule="nonzero"/></clipPath><clipPath id="7453725581"><path d="M -15.070312 213.929688 L 152.765625 -19.1875 L 402.921875 160.921875 L 235.085938 394.035156 Z M -15.070312 213.929688 " clip-rule="nonzero"/></clipPath><clipPath id="62382f751b"><path d="M -15.070312 213.929688 L 152.765625 -19.1875 L 402.921875 160.921875 L 235.085938 394.035156 Z M -15.070312 213.929688 " clip-rule="nonzero"/></clipPath><clipPath id="8b6c4d9fb7"><path d="M -15.070312 213.929688 L 152.765625 -19.1875 L 402.921875 160.921875 L 235.085938 394.035156 Z M -15.070312 213.929688 " clip-rule="nonzero"/></clipPath></defs><rect x="-37.5" width="450" fill="#ffffff" y="-37.499999" height="449.999989" fill-opacity="1"/><rect x="-37.5" width="450" fill="#ffffff" y="-37.499999" height="449.999989" fill-opacity="1"/><g clip-path="url(#d0e26ed7f8)"><g clip-path="url(#9ac9e4a5ce)"><g clip-path="url(#9bb515de70)"><path fill="#e97b14" d="M 130.605469 138.363281 L 132.808594 135.105469 C 133.890625 135.460938 135.015625 135.699219 136.15625 135.789062 L 136.902344 139.652344 C 137.019531 140.25 137.597656 140.644531 138.199219 140.527344 L 143.585938 139.484375 C 144.167969 139.371094 144.570312 138.757812 144.460938 138.191406 L 143.710938 134.328125 C 144.738281 133.816406 145.6875 133.1875 146.566406 132.441406 L 149.824219 134.644531 C 150.332031 134.988281 151.023438 134.851562 151.363281 134.347656 L 154.429688 129.8125 C 154.769531 129.304688 154.636719 128.613281 154.132812 128.273438 L 150.871094 126.070312 C 151.230469 124.988281 151.460938 123.871094 151.558594 122.71875 L 155.417969 121.972656 C 156.003906 121.859375 156.414062 121.253906 156.292969 120.679688 L 155.253906 115.292969 C 155.136719 114.691406 154.558594 114.300781 153.957031 114.417969 L 150.09375 115.164062 C 149.585938 114.136719 148.953125 113.191406 148.210938 112.3125 L 150.414062 109.050781 C 150.753906 108.546875 150.621094 107.855469 150.117188 107.511719 L 145.578125 104.449219 C 145.074219 104.105469 144.382812 104.238281 144.039062 104.746094 L 141.835938 108.003906 C 140.753906 107.648438 139.632812 107.410156 138.488281 107.320312 L 137.742188 103.457031 C 137.625 102.855469 137.046875 102.464844 136.445312 102.582031 L 131.058594 103.625 C 130.476562 103.738281 130.066406 104.34375 130.183594 104.917969 L 130.933594 108.78125 C 129.90625 109.292969 128.949219 109.914062 128.078125 110.667969 L 124.820312 108.464844 C 124.316406 108.121094 123.621094 108.257812 123.28125 108.761719 L 120.214844 113.296875 C 119.875 113.800781 120.007812 114.496094 120.511719 114.835938 L 123.773438 117.039062 C 123.40625 118.117188 123.179688 119.246094 123.089844 120.390625 L 119.226562 121.136719 C 118.625 121.253906 118.234375 121.832031 118.351562 122.429688 L 119.390625 127.816406 C 119.449219 128.109375 119.617188 128.355469 119.863281 128.523438 C 120.113281 128.691406 120.410156 128.746094 120.695312 128.699219 L 124.558594 127.949219 C 125.070312 128.976562 125.691406 129.933594 126.445312 130.804688 L 124.242188 134.0625 C 123.898438 134.566406 124.035156 135.261719 124.539062 135.601562 L 129.074219 138.667969 C 129.570312 139.003906 130.257812 138.878906 130.605469 138.363281 Z M 129.386719 116.191406 C 132.347656 111.8125 138.3125 110.667969 142.683594 113.621094 C 147.054688 116.574219 148.210938 122.546875 145.257812 126.917969 C 142.300781 131.289062 136.332031 132.441406 131.960938 129.488281 C 127.589844 126.535156 126.429688 120.574219 129.386719 116.191406 Z M 129.386719 116.191406 " fill-opacity="1" fill-rule="nonzero"/></g></g></g><g clip-path="url(#5355954f8f)"><g clip-path="url(#1cb5992b3e)"><g clip-path="url(#62a6b8c6cf)"><path fill="#e97b14" d="M 141.453125 124.347656 C 142.992188 122.070312 142.390625 118.960938 140.113281 117.421875 C 137.835938 115.882812 134.730469 116.484375 133.191406 118.761719 C 131.652344 121.039062 132.253906 124.148438 134.53125 125.6875 C 136.808594 127.226562 139.914062 126.625 141.453125 124.347656 Z M 141.453125 124.347656 " fill-opacity="1" fill-rule="nonzero"/></g></g></g><g clip-path="url(#39e1fc1899)"><g clip-path="url(#1d97628b88)"><g clip-path="url(#3c0ab493ef)"><path fill="#e97b14" d="M 154.429688 144.738281 C 154.253906 144.914062 154.101562 145.105469 153.964844 145.308594 C 152.90625 146.867188 153.074219 149.015625 154.464844 150.382812 C 155.234375 151.128906 156.230469 151.535156 157.289062 151.527344 C 158.351562 151.523438 159.351562 151.089844 160.101562 150.339844 C 161.640625 148.769531 161.625 146.242188 160.054688 144.703125 C 158.511719 143.148438 155.96875 143.171875 154.429688 144.738281 Z M 154.429688 144.738281 " fill-opacity="1" fill-rule="nonzero"/></g></g></g><g clip-path="url(#67dad84dc0)"><g clip-path="url(#8bb7537ecf)"><g clip-path="url(#85a2e9c0c7)"><path fill="#e97b14" d="M 130.222656 164.644531 L 131.203125 163.191406 C 131.582031 163.304688 131.980469 163.386719 132.375 163.4375 C 132.449219 163.863281 132.554688 164.414062 132.699219 165.15625 C 132.753906 165.445312 132.921875 165.695312 133.171875 165.863281 C 133.417969 166.027344 133.710938 166.09375 134.003906 166.035156 L 136.910156 165.472656 C 137.203125 165.417969 137.449219 165.25 137.617188 165 C 137.777344 164.761719 137.847656 164.460938 137.792969 164.167969 L 137.457031 162.445312 C 137.804688 162.25 138.136719 162.035156 138.449219 161.789062 L 139.902344 162.769531 C 140.148438 162.9375 140.441406 163.003906 140.730469 162.945312 C 141.023438 162.890625 141.273438 162.722656 141.4375 162.472656 L 143.097656 160.023438 C 143.4375 159.515625 143.304688 158.824219 142.796875 158.484375 L 141.347656 157.503906 C 141.457031 157.121094 141.535156 156.730469 141.589844 156.328125 C 141.730469 156.304688 141.882812 156.273438 142.039062 156.242188 L 143.316406 155.996094 C 143.914062 155.878906 144.304688 155.300781 144.191406 154.703125 L 143.628906 151.792969 C 143.511719 151.191406 142.933594 150.800781 142.332031 150.917969 C 141.625 151.054688 141.054688 151.164062 140.617188 151.257812 C 140.425781 150.914062 140.199219 150.574219 139.960938 150.25 L 140.941406 148.800781 C 141.28125 148.296875 141.148438 147.601562 140.644531 147.261719 L 138.199219 145.59375 C 137.949219 145.429688 137.660156 145.363281 137.367188 145.421875 C 137.074219 145.476562 136.828125 145.644531 136.660156 145.894531 L 135.679688 147.34375 C 135.296875 147.234375 134.898438 147.152344 134.503906 147.101562 C 134.429688 146.660156 134.320312 146.089844 134.179688 145.382812 C 134.066406 144.78125 133.488281 144.390625 132.886719 144.507812 L 129.976562 145.070312 C 129.378906 145.1875 128.988281 145.765625 129.101562 146.363281 L 129.425781 148.082031 C 129.082031 148.277344 128.75 148.492188 128.4375 148.738281 L 126.984375 147.757812 C 126.480469 147.414062 125.789062 147.550781 125.445312 148.054688 L 123.78125 150.5 C 123.621094 150.738281 123.550781 151.039062 123.605469 151.332031 C 123.664062 151.625 123.832031 151.871094 124.078125 152.039062 L 125.53125 153.019531 C 125.417969 153.398438 125.335938 153.800781 125.285156 154.191406 C 124.859375 154.265625 124.304688 154.375 123.566406 154.515625 C 122.96875 154.632812 122.578125 155.210938 122.691406 155.8125 L 123.253906 158.71875 C 123.3125 159.011719 123.480469 159.257812 123.726562 159.425781 C 123.976562 159.59375 124.265625 159.65625 124.558594 159.601562 L 126.28125 159.265625 C 126.476562 159.613281 126.695312 159.945312 126.945312 160.265625 L 125.964844 161.714844 C 125.804688 161.953125 125.734375 162.253906 125.792969 162.546875 C 125.847656 162.839844 126.015625 163.085938 126.265625 163.253906 L 128.714844 164.910156 C 129.1875 165.28125 129.878906 165.148438 130.222656 164.644531 Z M 131.050781 155.734375 C 130.9375 155.09375 131.066406 154.445312 131.425781 153.914062 C 131.792969 153.371094 132.34375 153.011719 132.984375 152.894531 C 133.625 152.777344 134.273438 152.910156 134.8125 153.273438 C 135.355469 153.640625 135.71875 154.191406 135.835938 154.832031 C 135.949219 155.472656 135.820312 156.121094 135.460938 156.652344 C 134.710938 157.765625 133.1875 158.058594 132.082031 157.300781 C 131.546875 156.925781 131.183594 156.371094 131.050781 155.734375 Z M 131.050781 155.734375 " fill-opacity="1" fill-rule="nonzero"/></g></g></g><g clip-path="url(#72b7ffb55d)"><g clip-path="url(#f3a9371afb)"><g clip-path="url(#ede419eb7b)"><path fill="#e97b14" d="M 164.253906 135.957031 L 162.347656 137.890625 C 161.707031 137.550781 161.03125 137.28125 160.328125 137.074219 L 160.304688 134.359375 C 160.304688 134.0625 160.1875 133.78125 159.980469 133.574219 C 159.769531 133.367188 159.484375 133.253906 159.191406 133.257812 L 155.117188 133.285156 C 154.824219 133.289062 154.542969 133.40625 154.335938 133.613281 C 154.128906 133.820312 154.015625 134.105469 154.015625 134.402344 L 154.039062 137.117188 C 153.347656 137.332031 152.675781 137.613281 152.03125 137.96875 L 150.097656 136.0625 C 149.890625 135.855469 149.605469 135.742188 149.3125 135.742188 C 149.015625 135.742188 148.734375 135.863281 148.527344 136.070312 L 145.671875 138.96875 C 145.625 139.019531 145.578125 139.066406 145.542969 139.121094 C 145.25 139.554688 145.300781 140.148438 145.6875 140.53125 L 147.621094 142.4375 C 147.28125 143.078125 147.011719 143.753906 146.804688 144.457031 L 144.089844 144.480469 C 143.472656 144.480469 142.980469 144.988281 142.988281 145.59375 L 143.015625 149.667969 C 143.019531 149.964844 143.136719 150.242188 143.34375 150.449219 C 143.550781 150.660156 143.835938 150.769531 144.132812 150.769531 L 146.847656 150.746094 C 147.0625 151.441406 147.34375 152.113281 147.699219 152.753906 L 145.792969 154.6875 C 145.585938 154.894531 145.472656 155.179688 145.472656 155.476562 C 145.472656 155.769531 145.59375 156.050781 145.800781 156.257812 L 148.699219 159.113281 C 149.132812 159.539062 149.835938 159.53125 150.269531 159.105469 L 152.179688 157.171875 C 152.820312 157.511719 153.496094 157.777344 154.195312 157.984375 L 154.21875 160.703125 C 154.222656 161 154.339844 161.277344 154.546875 161.488281 C 154.753906 161.695312 155.039062 161.804688 155.335938 161.804688 L 159.421875 161.773438 C 159.71875 161.769531 160 161.652344 160.207031 161.445312 C 160.414062 161.238281 160.527344 160.953125 160.523438 160.65625 L 160.503906 157.941406 C 161.195312 157.726562 161.867188 157.445312 162.507812 157.089844 L 164.441406 158.996094 C 164.875 159.425781 165.578125 159.417969 166.011719 158.988281 L 168.867188 156.089844 C 169.300781 155.644531 169.289062 154.953125 168.859375 154.519531 L 166.925781 152.609375 C 167.265625 151.96875 167.535156 151.292969 167.742188 150.59375 L 170.457031 150.570312 C 170.738281 150.570312 171.019531 150.453125 171.226562 150.246094 C 171.433594 150.039062 171.546875 149.753906 171.546875 149.457031 L 171.515625 145.382812 C 171.515625 145.089844 171.394531 144.808594 171.1875 144.601562 C 170.980469 144.394531 170.695312 144.28125 170.398438 144.28125 L 167.683594 144.304688 C 167.46875 143.613281 167.1875 142.941406 166.832031 142.300781 L 168.742188 140.363281 C 168.949219 140.15625 169.058594 139.871094 169.058594 139.578125 C 169.058594 139.28125 168.9375 139 168.730469 138.792969 L 165.832031 135.9375 C 165.625 135.730469 165.339844 135.617188 165.042969 135.621094 C 164.742188 135.628906 164.460938 135.75 164.253906 135.957031 Z M 162.464844 142.265625 C 163.867188 143.65625 164.664062 145.503906 164.679688 147.480469 C 164.695312 149.457031 163.941406 151.328125 162.550781 152.730469 C 161.164062 154.132812 159.3125 154.929688 157.335938 154.945312 C 155.359375 154.960938 153.488281 154.203125 152.085938 152.816406 C 149.511719 150.273438 149.1875 146.292969 151.148438 143.394531 C 151.398438 143.027344 151.691406 142.675781 152.007812 142.339844 C 154.859375 139.425781 159.5625 139.394531 162.464844 142.265625 Z M 162.464844 142.265625 " fill-opacity="1" fill-rule="nonzero"/></g></g></g><g clip-path="url(#75dc6eef64)"><path fill="#e97b14" d="M 130.480469 279.636719 L 130.480469 166.988281 L 176.300781 166.988281 L 176.300781 184.09375 L 216.625 184.113281 C 220.316406 184.113281 223.773438 182.679688 226.363281 180.082031 C 228.960938 177.484375 230.386719 174.027344 230.382812 170.355469 L 230.363281 160.480469 C 230.347656 152.9375 224.199219 146.785156 216.652344 146.773438 L 178.621094 146.789062 L 147.261719 101.015625 L 216.703125 100.992188 C 249.429688 101.058594 276.089844 127.707031 276.148438 160.398438 L 276.167969 170.273438 C 276.195312 186.191406 270.015625 201.160156 258.769531 212.425781 C 247.523438 223.6875 232.5625 229.890625 216.644531 229.890625 L 176.300781 229.925781 L 176.300781 279.636719 Z M 130.480469 279.636719 " fill-opacity="1" fill-rule="nonzero"/></g><g clip-path="url(#a9b419740f)"><g clip-path="url(#f48f14690f)"><g clip-path="url(#5dd1740579)"><g clip-path="url(#63cfdf1db7)"><path fill="#53a600" d="M 111.363281 276.179688 C 109.4375 274.6875 107.535156 273.113281 105.707031 271.507812 C 100.933594 267.300781 93.648438 267.761719 89.441406 272.542969 C 89.199219 272.816406 88.984375 273.09375 88.773438 273.378906 C 85.300781 278.140625 85.964844 284.847656 90.46875 288.816406 C 92.648438 290.734375 94.921875 292.613281 97.21875 294.398438 C 102.242188 298.300781 109.484375 297.390625 113.394531 292.359375 C 117.308594 287.324219 116.386719 280.089844 111.363281 276.179688 " fill-opacity="1" fill-rule="nonzero"/></g></g></g></g><g clip-path="url(#19c86a329d)"><g clip-path="url(#7b8e25998c)"><g clip-path="url(#a4fd3dc276)"><g clip-path="url(#96f7a73f7f)"><path fill="#53a600" d="M 68.035156 208.226562 C 67.488281 205.851562 67 203.433594 66.601562 201.035156 C 65.546875 194.757812 59.601562 190.523438 53.324219 191.582031 C 50.234375 192.101562 47.640625 193.808594 45.925781 196.15625 C 44.160156 198.578125 43.328125 201.679688 43.863281 204.867188 C 44.347656 207.722656 44.917969 210.605469 45.574219 213.433594 C 47.007812 219.632812 53.195312 223.5 59.398438 222.0625 C 65.601562 220.621094 69.464844 214.429688 68.035156 208.226562 " fill-opacity="1" fill-rule="nonzero"/></g></g></g></g><g clip-path="url(#0c92af3a62)"><g clip-path="url(#89bf130145)"><g clip-path="url(#a95fa522e5)"><g clip-path="url(#ea47581975)"><path fill="#53a600" d="M 83.851562 245.957031 C 82.542969 243.902344 81.28125 241.777344 80.097656 239.644531 C 77.011719 234.078125 69.996094 232.070312 64.425781 235.164062 C 62.914062 236.003906 61.664062 237.132812 60.710938 238.445312 C 58.144531 241.957031 57.691406 246.785156 59.9375 250.839844 C 61.34375 253.375 62.847656 255.90625 64.40625 258.351562 C 67.824219 263.722656 74.945312 265.296875 80.316406 261.875 C 85.6875 258.453125 87.269531 251.324219 83.851562 245.957031 " fill-opacity="1" fill-rule="nonzero"/></g></g></g></g><g clip-path="url(#2faf4b2278)"><g clip-path="url(#6595ae35d8)"><g clip-path="url(#97a6185d44)"><g clip-path="url(#1d1ff75e18)"><path fill="#53a600" d="M 147.460938 295.417969 C 145.15625 294.648438 142.839844 293.804688 140.570312 292.894531 C 135.578125 290.894531 130.007812 292.640625 126.976562 296.796875 C 126.421875 297.558594 125.949219 298.402344 125.582031 299.316406 C 123.214844 305.230469 126.085938 311.9375 131.992188 314.308594 C 134.6875 315.382812 137.449219 316.390625 140.191406 317.300781 C 146.234375 319.304688 152.761719 316.03125 154.765625 309.988281 C 156.773438 303.945312 153.503906 297.417969 147.460938 295.417969 " fill-opacity="1" fill-rule="nonzero"/></g></g></g></g><g clip-path="url(#c0eab0bdf8)"><g clip-path="url(#1a609f87a0)"><g clip-path="url(#43758ca9aa)"><g clip-path="url(#33036f2f05)"><path fill="#53a600" d="M 199.652344 312.742188 C 199.507812 306.375 194.234375 301.335938 187.871094 301.480469 C 185.4375 301.539062 182.96875 301.519531 180.542969 301.425781 C 176.554688 301.269531 172.964844 303.164062 170.773438 306.160156 C 169.472656 307.945312 168.664062 310.128906 168.570312 312.503906 C 168.324219 318.867188 173.277344 324.222656 179.640625 324.464844 C 182.539062 324.578125 185.484375 324.597656 188.382812 324.53125 C 194.75 324.382812 199.789062 319.105469 199.652344 312.742188 " fill-opacity="1" fill-rule="nonzero"/></g></g></g></g><g clip-path="url(#250af0e4ca)"><g clip-path="url(#7453725581)"><g clip-path="url(#62382f751b)"><g clip-path="url(#8b6c4d9fb7)"><path fill="#53a600" d="M 315.828125 272.1875 L 302.941406 262.949219 C 324.113281 232.515625 332.613281 195.734375 326.886719 158.992188 C 326.3125 155.292969 325.59375 151.640625 324.746094 148.039062 C 324.742188 148.015625 324.738281 147.992188 324.734375 147.964844 C 324.699219 147.816406 324.652344 147.664062 324.617188 147.515625 C 317.035156 115.804688 299.078125 87.945312 273.132812 67.851562 C 272.945312 67.683594 272.753906 67.515625 272.550781 67.359375 C 271.683594 66.691406 270.789062 66.023438 269.902344 65.375 C 268.445312 64.3125 266.945312 63.261719 265.449219 62.257812 C 265.269531 62.136719 265.085938 62.035156 264.910156 61.925781 C 240.035156 45.28125 211.101562 36.976562 181.484375 37.835938 C 181.382812 37.839844 181.28125 37.828125 181.179688 37.832031 C 178.289062 37.917969 175.355469 38.09375 172.460938 38.359375 C 172.277344 38.378906 172.097656 38.414062 171.910156 38.4375 C 169.007812 38.714844 166.089844 39.074219 163.179688 39.53125 C 133.417969 44.191406 106.484375 57.753906 85.347656 78.394531 C 85.300781 78.441406 85.253906 78.484375 85.207031 78.53125 C 85.171875 78.5625 85.140625 78.601562 85.105469 78.636719 C 79.472656 84.164062 74.246094 90.191406 69.503906 96.695312 C 57.039062 113.773438 48.667969 132.875 44.613281 153.464844 C 43.382812 159.710938 47.449219 165.769531 53.695312 166.996094 C 59.941406 168.222656 66.003906 164.152344 67.230469 157.90625 C 69.253906 147.628906 72.574219 137.792969 77.128906 128.492188 C 77.1875 128.378906 77.257812 128.28125 77.308594 128.167969 C 78.386719 125.976562 79.539062 123.789062 80.742188 121.671875 C 80.75 121.65625 80.753906 121.644531 80.761719 121.628906 C 82.988281 117.742188 85.441406 113.957031 88.121094 110.28125 C 118.972656 68.003906 172.40625 51.734375 219.890625 65.929688 C 220.589844 66.144531 221.292969 66.351562 221.984375 66.574219 C 233.949219 70.394531 245.507812 76.160156 256.199219 83.960938 C 266.949219 91.808594 276.011719 101.121094 283.328125 111.421875 C 283.441406 111.589844 283.554688 111.753906 283.671875 111.914062 C 284.117188 112.546875 284.550781 113.183594 284.980469 113.820312 C 285.152344 114.078125 285.324219 114.335938 285.496094 114.59375 C 307.269531 147.484375 311.722656 189.648438 296.601562 226.644531 C 296.589844 226.667969 296.578125 226.6875 296.570312 226.707031 C 296.34375 227.257812 296.117188 227.800781 295.882812 228.347656 C 295.859375 228.410156 295.839844 228.472656 295.8125 228.535156 C 292.710938 235.773438 288.847656 242.808594 284.207031 249.519531 L 271.316406 240.28125 C 267.738281 237.714844 265.070312 239.210938 265.390625 243.601562 L 268.234375 282.78125 C 268.550781 287.171875 272.300781 289.863281 276.558594 288.75 L 314.582031 278.867188 C 318.84375 277.757812 319.402344 274.75 315.828125 272.1875 " fill-opacity="1" fill-rule="nonzero"/></g></g></g></g></svg>